<?xml version="1.0" encoding="utf-8"?>
<!-- Generator: Adobe Illustrator 27.4.1, SVG Export Plug-In . SVG Version: 6.00 Build 0)  -->
<svg version="1.0" id="Ebene_1" xmlns="http://www.w3.org/2000/svg" xmlns:xlink="http://www.w3.org/1999/xlink" x="0px" y="0px"
	 viewBox="0 0 99.72 48.19" style="enable-background:new 0 0 99.72 48.19;" xml:space="preserve">
<style type="text/css">
	.st0{fill-rule:evenodd;clip-rule:evenodd;fill:#E63025;}
	.st1{fill-rule:evenodd;clip-rule:evenodd;fill:#FFE700;}
	.st2{fill-rule:evenodd;clip-rule:evenodd;fill:#008ACB;}
</style>
<path class="st0" d="M9.16,15.9l2.92-4.5l5.3-4.24l7.42-2.91l6.36-1.86l7.68-1.06l6.63-1.06L50.76,0h7.22h5.76l-1.06,1.33v0.8
	l1.33-0.53l0.79,1.06l-1.59,1.33l-5.04,0.79h1.59l3.18,0.27l2.91,0.27l2.13,3.44l-3.44,0.27l-1.07,1.33L61.1,11.4l-3.18-0.53
	l-3.18,2.92l-4.77,1.06l-7.95,1.06l-3.71,1.33l-3.98,2.12l-9.01,5.3l-5.04,3.18l-5.3-0.79l-4.51-2.65L8.1,22.52l1.33-3.44
	l-1.59-1.33L9.16,15.9L9.16,15.9z"/>
<polygon class="st1" points="10.86,31.91 13.78,27.41 19.07,23.16 26.49,20.25 32.86,18.4 40.54,17.34 47.16,16.28 52.46,16.01 
	59.68,16.01 65.44,16.01 64.38,17.34 64.38,18.14 65.71,17.6 66.5,18.66 64.92,19.99 59.88,20.78 61.47,20.78 64.65,21.05 
	67.56,21.31 69.69,24.76 66.24,25.02 65.18,26.35 62.79,27.41 59.61,26.87 56.44,29.79 51.67,30.85 43.72,31.91 40.01,33.24 
	36.03,35.36 27.03,40.65 21.99,43.84 16.69,43.04 12.18,40.39 9.8,38.53 11.13,35.09 9.54,33.76 10.86,31.91 "/>
<polygon class="st2" points="32.44,36.26 35.35,31.75 40.65,27.52 48.07,24.6 54.43,22.75 62.11,21.69 68.74,20.63 74.03,20.36 
	81.26,20.36 87.02,20.36 85.96,21.69 85.96,22.48 87.28,21.96 88.08,23.01 86.49,24.34 81.45,25.13 83.05,25.13 86.22,25.4 
	89.14,25.67 91.26,29.11 87.82,29.37 86.76,30.69 84.37,31.75 81.19,31.23 78.01,34.14 73.24,35.2 65.29,36.26 61.58,37.58 
	57.61,39.71 48.6,45 43.56,48.19 38.27,47.39 33.76,44.74 31.37,42.89 32.7,39.44 31.11,38.12 32.44,36.26 "/>
<g>
	<path d="M10.34,11.99c-0.27,2.12,0.98,2.89,2.78,2.89c2.12,0,3.25-1.15,3.52-2.44c0.78-3.66-6.94-1.23-5.95-5.87
		c0.35-1.64,2.03-3.17,4.67-3.17c2.66,0,3.64,1.61,3.22,3.53h-1.07c0.38-1.8-0.85-2.57-2.36-2.57c-2.26,0-3.38,1.39-3.44,2.61
		c-0.14,3.05,7.02,0.85,6.05,5.43c-0.46,2.16-2.32,3.44-5.05,3.44c-2.46,0-4.01-1.28-3.46-3.84H10.34z"/>
	<path d="M23.14,10.56c0.37-0.03,1-0.13,1.35-0.28c0.36-0.15,0.49-0.59,0.55-0.89c0.21-1-0.22-1.72-1.75-1.72
		c-1.36,0-2.39,0.44-2.88,1.92h-1c0.57-2,2.24-2.8,4.09-2.8c1.72,0,2.94,0.67,2.52,2.64l-0.98,4.63c-0.16,0.77-0.01,0.95,0.89,0.66
		l-0.16,0.77c-0.16,0.05-0.53,0.16-0.81,0.16c-0.16,0-0.29-0.02-0.43-0.05c-0.64-0.1-0.63-0.67-0.52-1.26
		c-1.02,0.92-2.24,1.41-3.47,1.41c-1.49,0-2.67-0.8-2.32-2.44c0.3-1.43,1.47-2.3,3.51-2.56L23.14,10.56z M24.69,11.06
		c-0.91,0.34-1.78,0.41-2.64,0.48c-1.52,0.11-2.53,0.66-2.78,1.8c-0.22,1.03,0.58,1.53,1.51,1.53c1.56,0,3.26-0.75,3.63-2.48
		L24.69,11.06z"/>
	<path d="M29.46,15.55c-0.24,0.05-0.7,0.2-1.17,0.2c-0.97,0-1.42-0.43-1.15-1.69l1.32-6.22h-1.2l0.17-0.82h1.2l0.5-2.36h0.98
		l-0.5,2.36h1.59l-0.17,0.82h-1.59l-1.24,5.82c-0.18,0.84-0.22,1.2,0.6,1.2c0.26,0,0.55-0.05,0.83-0.11L29.46,15.55z"/>
	<path d="M29.58,15.52l0.18-0.87l7.09-6.81h-5.26l0.17-0.82h6.53l-0.18,0.87l-7.09,6.81h5.86l-0.17,0.82H29.58z"/>
	<path d="M43.08,7.32h0.98l-0.77,3.61h3.61l-0.21,0.98h-3.61l-0.77,3.61h-0.98l0.77-3.61H38.5l0.21-0.98h3.61L43.08,7.32z"/>
	<path d="M47.75,15.52l2.51-11.81h4.03c1.31,0,2.52,0.08,3.45,0.89c1.32,1.13,1.24,3.43,0.9,5c-0.33,1.56-1.05,3.3-2.38,4.48
		c-1.34,1.21-2.93,1.44-4.49,1.44H47.75z M49.07,14.57h2.67c1,0,1.88-0.07,2.89-0.54c1.75-0.8,2.57-2.82,2.91-4.43
		c0.37-1.72,0.39-3.61-1.08-4.49c-0.63-0.38-1.63-0.44-2.61-0.44h-2.67L49.07,14.57z"/>
	<path d="M59.66,15.52h-0.98l1.81-8.5h0.98l-0.34,1.59h0.03c0.83-1.36,1.73-1.82,3.16-1.82l-0.23,1.07
		c-2.2-0.05-3.14,1.59-3.55,3.49L59.66,15.52z"/>
	<path d="M70.83,7.02h0.98l-1.81,8.5h-0.98l0.25-1.18c-0.65,0.59-1.55,1.41-3.04,1.41c-2.26,0-2.73-1.36-2.35-3.13l1.19-5.59h0.98
		l-1.19,5.58c-0.31,1.46,0.16,2.26,1.7,2.26c1.62,0,2.88-1.34,3.27-3.21L70.83,7.02z"/>
	<path d="M78.82,9.7c-0.08-1.26-0.78-2.02-2.1-2.02c-2.02,0-3.24,1.84-3.62,3.61c-0.38,1.79,0.06,3.58,2.09,3.58
		c1.46,0,2.56-0.87,3.09-2.28h1.05c-0.74,1.89-2.2,3.17-4.33,3.17c-2.71,0-3.49-1.95-2.95-4.46c0.5-2.36,2.32-4.49,4.86-4.49
		c1.95,0,3.03,0.93,2.91,2.9H78.82z"/>
	<path d="M79.8,15.52l2.51-11.81h0.98l-1.56,7.35l5.02-4.03h1.35l-3.83,3.07l2.41,5.43h-1.1l-2.17-4.74l-1.93,1.53l-0.68,3.21H79.8z
		"/>
</g>
<g>
	<path d="M0,29.18l2.51-11.81h1.12l-1.08,5.07h6.99l1.08-5.07h1.12L9.22,29.18H8.1l1.23-5.79H2.35l-1.23,5.79H0z"/>
	<path d="M13.17,25.17c-0.41,1.84,0.25,3.36,2.14,3.36c1.28,0,2.43-0.71,2.99-1.95h1.1c-0.83,1.61-2.11,2.84-4.28,2.84
		c-2.72,0-3.49-1.94-2.96-4.44c0.53-2.48,2.43-4.51,4.86-4.51c2.33,0,3.4,1.66,2.74,4.71H13.17z M18.89,24.35
		c0.35-1.66-0.28-3-2.05-3c-1.74,0-2.95,1.39-3.49,3H18.89z"/>
	<path d="M21.86,29.18h-0.98l1.81-8.5h0.98l-0.34,1.59h0.03c0.83-1.36,1.73-1.82,3.16-1.82l-0.23,1.07
		c-2.2-0.05-3.14,1.59-3.55,3.49L21.86,29.18z"/>
	<path d="M27.32,29.18h-0.98l1.81-8.5h0.98l-0.34,1.59h0.03c0.83-1.36,1.73-1.82,3.16-1.82l-0.23,1.07
		c-2.2-0.05-3.14,1.59-3.55,3.49L27.32,29.18z"/>
</g>
<g>
	<path d="M32.89,29.18H31.9l1.81-8.5h0.98l-0.27,1.28h0.03c0.71-0.97,1.85-1.51,2.94-1.51c1.57,0,1.97,0.74,2.14,1.64
		c0.79-1.1,1.91-1.64,3.12-1.64c2.31,0,2.29,1.66,1.93,3.36l-1.14,5.36h-0.98l1.25-5.87c0.26-1.21-0.01-1.97-1.4-1.97
		c-0.72,0-1.49,0.31-2.12,0.97c-0.54,0.56-0.9,1.59-1.05,2.3l-0.97,4.58h-0.98l1.25-5.87c0.26-1.21-0.01-1.97-1.4-1.97
		c-0.72,0-1.49,0.31-2.12,0.97c-0.54,0.56-0.9,1.59-1.05,2.3L32.89,29.18z"/>
	<path d="M50.65,24.23c0.37-0.03,1-0.13,1.36-0.28c0.36-0.15,0.49-0.59,0.55-0.89c0.21-1-0.22-1.72-1.75-1.72
		c-1.36,0-2.39,0.44-2.88,1.92h-1c0.57-2,2.24-2.8,4.09-2.8c1.72,0,2.94,0.67,2.52,2.64l-0.98,4.63c-0.16,0.77-0.01,0.95,0.89,0.66
		l-0.16,0.77c-0.16,0.05-0.53,0.16-0.81,0.16c-0.16,0-0.29-0.02-0.43-0.05c-0.64-0.1-0.63-0.67-0.52-1.26
		c-1.02,0.92-2.23,1.41-3.46,1.41c-1.49,0-2.67-0.8-2.32-2.44c0.3-1.43,1.47-2.3,3.51-2.56L50.65,24.23z M52.2,24.72
		c-0.91,0.34-1.78,0.41-2.64,0.48c-1.52,0.11-2.53,0.66-2.78,1.8c-0.22,1.03,0.58,1.53,1.51,1.53c1.56,0,3.26-0.75,3.63-2.48
		L52.2,24.72z"/>
	<path d="M55.8,29.18h-0.98l1.81-8.5h0.98l-0.25,1.18c0.96-0.84,1.86-1.41,3.04-1.41c1.03,0,1.92,0.33,2.33,1.21
		c0.28,0.61,0.16,1.25,0.01,1.95l-1.18,5.56h-0.98l1.18-5.54c0.32-1.52-0.14-2.3-1.71-2.3c-1.21,0-2.22,0.79-2.71,1.66
		c-0.31,0.54-0.43,1.02-0.55,1.61L55.8,29.18z"/>
	<path d="M64.92,29.18h-0.98l1.81-8.5h0.98l-0.25,1.18c0.96-0.84,1.86-1.41,3.04-1.41c1.03,0,1.92,0.33,2.33,1.21
		c0.28,0.61,0.16,1.25,0.01,1.95l-1.18,5.56h-0.98l1.18-5.54c0.32-1.52-0.14-2.3-1.71-2.3c-1.21,0-2.22,0.79-2.71,1.66
		c-0.31,0.54-0.43,1.02-0.55,1.61L64.92,29.18z"/>
</g>
<g>
	<path d="M75.98,29.18l7.15-11.81h1.26l2.02,11.81h-1.15l-0.57-3.71h-5.38l-2.18,3.71H75.98z M79.89,24.53h4.62l-0.99-6.2
		L79.89,24.53z"/>
	<path d="M94.12,24.03l0.2-0.95h5.05l-1.3,6.1h-0.95l0.43-2.02c-1.12,1.41-2.58,2.33-4.91,2.33c-2.98,0-4.72-2.08-3.83-6.28
		c0.74-3.46,3.05-6.15,6.77-6.15c2.48,0,4.17,1.21,4.14,3.74h-1.15c-0.02-1.77-1.36-2.79-3.11-2.79c-3.12,0-4.92,2.3-5.63,5.64
		c-0.55,2.61,0.54,4.89,3.24,4.89c1.28,0,2.9-0.54,4-2.07c0.53-0.74,0.82-1.56,1.03-2.44H94.12z"/>
</g>
<g>
	<path d="M19.3,42.85l2.51-11.81h1.12L20.62,41.9h6.33l-0.2,0.95H19.3z"/>
	<path d="M32.41,37.9c0.37-0.03,1-0.13,1.35-0.28c0.36-0.15,0.49-0.59,0.55-0.89c0.21-1-0.22-1.72-1.75-1.72
		c-1.36,0-2.39,0.44-2.88,1.92h-1c0.57-2,2.24-2.8,4.09-2.8c1.72,0,2.94,0.67,2.52,2.64l-0.98,4.63c-0.16,0.77-0.01,0.95,0.89,0.66
		l-0.16,0.77c-0.16,0.05-0.53,0.16-0.81,0.16c-0.16,0-0.29-0.02-0.43-0.05c-0.64-0.1-0.63-0.67-0.52-1.26
		c-1.02,0.92-2.23,1.41-3.47,1.41c-1.49,0-2.67-0.8-2.32-2.44c0.3-1.43,1.47-2.3,3.51-2.56L32.41,37.9z M33.96,38.39
		c-0.91,0.34-1.78,0.41-2.64,0.48c-1.52,0.11-2.53,0.66-2.78,1.8c-0.22,1.03,0.58,1.53,1.51,1.53c1.56,0,3.26-0.75,3.63-2.48
		L33.96,38.39z"/>
	<path d="M36.73,42.85h-0.98l1.81-8.5h0.98l-0.25,1.18c0.96-0.84,1.86-1.41,3.04-1.41c1.03,0,1.91,0.33,2.33,1.21
		c0.28,0.61,0.16,1.25,0.01,1.95l-1.18,5.56h-0.98l1.18-5.54c0.32-1.52-0.14-2.3-1.71-2.3c-1.21,0-2.22,0.79-2.71,1.66
		c-0.31,0.54-0.43,1.02-0.55,1.61L36.73,42.85z"/>
	<path d="M52.41,34.36h0.98l-1.63,7.67c-0.48,2.28-1.67,4.3-4.9,4.3c-2.49,0-3.22-1.43-3.07-2.44h1.05
		c0.02,1.28,1.05,1.56,2.21,1.56c2.69,0,3.48-2,3.84-3.95c-0.84,1.03-2.18,1.59-3.37,1.59c-2.59,0-3.34-2.12-2.83-4.49
		c0.53-2.51,2.05-4.46,4.79-4.46c1.08,0,2.25,0.61,2.59,1.72h0.03L52.41,34.36z M49.4,35.01c-1.66,0-3.14,1.2-3.61,3.33
		c-0.54,2.13,0.05,3.85,2.08,3.85c1.79,0,3.22-1.64,3.63-3.56C51.94,36.59,51.26,35.01,49.4,35.01z"/>
	<path d="M54.23,42.85h-0.98l1.81-8.5h0.98l-0.25,1.18c0.97-0.84,1.86-1.41,3.04-1.41c1.03,0,1.92,0.33,2.33,1.21
		c0.28,0.61,0.16,1.25,0.01,1.95l-1.18,5.56H59l1.18-5.54c0.32-1.52-0.13-2.3-1.71-2.3c-1.21,0-2.22,0.79-2.71,1.66
		c-0.31,0.54-0.43,1.02-0.56,1.61L54.23,42.85z"/>
	<path d="M66.5,37.9c0.37-0.03,1-0.13,1.36-0.28c0.36-0.15,0.49-0.59,0.55-0.89c0.21-1-0.22-1.72-1.75-1.72
		c-1.36,0-2.39,0.44-2.88,1.92h-1c0.57-2,2.24-2.8,4.09-2.8c1.72,0,2.94,0.67,2.52,2.64l-0.98,4.63c-0.16,0.77-0.01,0.95,0.89,0.66
		l-0.16,0.77c-0.16,0.05-0.53,0.16-0.8,0.16c-0.16,0-0.29-0.02-0.43-0.05c-0.64-0.1-0.63-0.67-0.52-1.26
		c-1.02,0.92-2.24,1.41-3.46,1.41c-1.49,0-2.67-0.8-2.32-2.44c0.3-1.43,1.47-2.3,3.51-2.56L66.5,37.9z M68.06,38.39
		c-0.91,0.34-1.78,0.41-2.64,0.48c-1.52,0.11-2.53,0.66-2.78,1.8c-0.22,1.03,0.58,1.53,1.51,1.53c1.56,0,3.26-0.75,3.63-2.48
		L68.06,38.39z"/>
	<path d="M77.41,34.36h0.98l-1.81,8.5H75.6l0.25-1.18c-0.65,0.59-1.55,1.41-3.04,1.41c-2.26,0-2.73-1.36-2.35-3.13l1.19-5.59h0.98
		l-1.19,5.58c-0.31,1.46,0.16,2.26,1.7,2.26c1.62,0,2.88-1.34,3.27-3.21L77.41,34.36z"/>
</g>
</svg>
